<svg width="104" height="104" viewBox="0 0 104 104" fill="none" xmlns="http://www.w3.org/2000/svg">
<path fill-rule="evenodd" clip-rule="evenodd" d="M14.4757 67.4659H85.5934V59.4827H14.4757V67.4659ZM63.7128 79.4431H67.6563V82.9719H32.4128V79.4431H36.355C37.0105 79.4431 37.5403 78.9141 37.5403 78.2597V69.8327H62.5275V78.2597C62.5275 78.9141 63.0586 79.4431 63.7128 79.4431ZM14.4757 57.1159H85.5934V16.9515H14.4757V57.1159ZM13.2904 14.5847C12.6349 14.5847 12.1051 15.1137 12.1051 15.7681V68.6493C12.1051 69.3037 12.6349 69.8327 13.2904 69.8327H35.1698V77.0763H31.2275C30.572 77.0763 30.0422 77.6076 30.0422 78.2597V84.1553C30.0422 84.8074 30.572 85.3387 31.2275 85.3387H68.8416C69.4959 85.3387 70.0269 84.8074 70.0269 84.1553V78.2597C70.0269 77.6076 69.4959 77.0763 68.8416 77.0763H64.8981V69.8327H86.7787C87.433 69.8327 87.964 69.3037 87.964 68.6493V15.7681C87.964 15.1137 87.433 14.5847 86.7787 14.5847H13.2904Z" fill="#62E0D9"/>
<path fill-rule="evenodd" clip-rule="evenodd" d="M48.4119 61.9205C47.7578 61.9205 47.2266 62.451 47.2266 63.1039C47.2266 63.7569 47.7578 64.2873 48.4119 64.2873C49.0659 64.2873 49.5972 63.7569 49.5972 63.1039C49.5972 62.451 49.0659 61.9205 48.4119 61.9205Z" fill="#62E0D9"/>
<rect x="68.1972" y="37.8898" width="25.6206" height="52.795" rx="1.64118" fill="#181F2B" stroke="#62E0D9" stroke-width="1.64118"/>
<rect x="67.6724" y="43.2821" width="26.6701" height="0.591698" fill="white" stroke="#62E0D9" stroke-width="0.591698"/>
<rect x="67.6724" y="81.1507" width="26.6701" height="0.591698" fill="white" stroke="#62E0D9" stroke-width="0.591698"/>
<ellipse cx="80.4148" cy="85.5884" rx="1.18529" ry="1.1834" stroke="#62E0D9" stroke-width="1.00971"/>
<path fill-rule="evenodd" clip-rule="evenodd" d="M57.4003 29.9689C57.3015 29.9689 57.3015 29.9689 57.2027 29.9689L51.9677 32.0398L46.0412 29.9689L40.5098 31.8426C40.3123 31.9412 40.1147 32.0398 40.1147 32.3357V47.2267C40.1147 47.5226 40.3123 47.7198 40.6086 47.7198C40.7074 47.7198 40.7074 47.7198 40.8062 47.7198L46.0412 45.6489L51.9677 47.7198L57.4991 45.8461C57.6966 45.7475 57.8942 45.5502 57.8942 45.353V30.462C57.8942 30.1661 57.6966 29.9689 57.4003 29.9689ZM51.9677 44.7613L46.0412 42.7643V31.4481L51.9677 33.4451V44.7613Z" fill="#62E0D9"/>
<path fill-rule="evenodd" clip-rule="evenodd" d="M42.4853 29.9689C41.1646 29.9689 40.1147 30.886 40.1147 32.0398C40.1147 33.5782 42.4853 35.8858 42.4853 35.8858C42.4853 35.8858 44.8559 33.5782 44.8559 32.0398C44.8559 30.886 43.8061 29.9689 42.4853 29.9689ZM42.4853 32.9274C41.9747 32.9274 41.5736 32.5658 41.5736 32.1056C41.5736 31.6453 41.9747 31.2838 42.4853 31.2838C42.9959 31.2838 43.3971 31.6453 43.3971 32.1056C43.3971 32.5658 42.9959 32.9274 42.4853 32.9274Z" fill="white"/>
</svg>
