<svg width="120" height="120" viewBox="0 0 120 120" fill="none" xmlns="http://www.w3.org/2000/svg">
<path d="M32.1074 57.21C41.0625 60.3576 50.5097 61.8729 59.9999 61.6837C69.4904 61.8717 78.9376 60.3552 87.8924 57.2062C94.8824 54.48 97.3612 51.45 97.3612 49.7063V36.375C94.9174 38.0116 92.2955 39.3652 89.5462 40.41C80.0716 43.8026 70.0623 45.4567 59.9999 45.2925C49.9384 45.4536 39.9301 43.8022 30.4537 40.4175C27.7029 39.3727 25.0809 38.0163 22.6387 36.375V49.6875C22.6387 51.465 25.1249 54.48 32.1074 57.21Z" fill="white"/>
<path d="M32.1074 82.3537C35.271 83.5602 38.5332 84.4899 41.8574 85.1325C47.8351 86.2889 53.9115 86.8578 59.9999 86.8312C66.0882 86.8591 72.1646 86.2913 78.1424 85.1362C81.4666 84.4936 84.7289 83.5639 87.8924 82.3575C94.8824 79.6312 97.3612 76.6012 97.3612 74.8575V62.145C95.3411 63.3605 93.2179 64.3958 91.0162 65.2387C81.0628 68.7628 70.557 70.4687 59.9999 70.275C49.4418 70.4627 38.9359 68.7504 28.9837 65.22C26.7829 64.3749 24.6599 63.3397 22.6387 62.1262V74.85C22.6387 76.5975 25.1249 79.6162 32.1074 82.3537Z" fill="white"/>
<path d="M59.9999 112.5C80.6249 112.5 97.3612 105.96 97.3612 97.8975V87.2588C95.5235 88.3665 93.5983 89.3222 91.6049 90.1163L91.0162 90.3525C81.0648 93.8871 70.5588 95.6031 59.9999 95.4188C49.4407 95.6085 38.9338 93.8923 28.9837 90.3525C28.7812 90.2775 28.5862 90.1913 28.3949 90.1163C26.4015 89.3222 24.4764 88.3665 22.6387 87.2588V97.8975C22.6387 105.96 39.3749 112.5 59.9999 112.5Z" fill="white"/>
<path d="M59.9999 36.705C80.634 36.705 97.3612 30.1672 97.3612 22.1025C97.3612 14.0378 80.634 7.5 59.9999 7.5C39.3659 7.5 22.6387 14.0378 22.6387 22.1025C22.6387 30.1672 39.3659 36.705 59.9999 36.705Z" fill="white"/>
</svg>
