<svg width="96" height="120" viewBox="0 0 96 120" fill="none" xmlns="http://www.w3.org/2000/svg">
<path d="M11.6392 9.76174C14.8413 9.76174 17.4371 7.5765 17.4371 4.88087C17.4371 2.18524 14.8413 0 11.6392 0C8.43711 0 5.84131 2.18524 5.84131 4.88087C5.84131 7.5765 8.43711 9.76174 11.6392 9.76174Z" fill="white"/>
<path d="M11.6392 30.5362C14.8413 30.5362 17.4371 28.3509 17.4371 25.6553C17.4371 22.9597 14.8413 20.7744 11.6392 20.7744C8.43711 20.7744 5.84131 22.9597 5.84131 25.6553C5.84131 28.3509 8.43711 30.5362 11.6392 30.5362Z" fill="white"/>
<path d="M35.7925 9.76174C38.9946 9.76174 41.5904 7.5765 41.5904 4.88087C41.5904 2.18524 38.9946 0 35.7925 0C32.5904 0 29.9946 2.18524 29.9946 4.88087C29.9946 7.5765 32.5904 9.76174 35.7925 9.76174Z" fill="white"/>
<path d="M59.9453 9.76174C63.1474 9.76174 65.7432 7.5765 65.7432 4.88087C65.7432 2.18524 63.1474 0 59.9453 0C56.7433 0 54.1475 2.18524 54.1475 4.88087C54.1475 7.5765 56.7433 9.76174 59.9453 9.76174Z" fill="white"/>
<path d="M27.1684 90.9706C23.41 89.8178 15.1648 86.3595 13.3002 86.2123C10.2118 85.7709 6.94872 85.6237 3.88954 86.9236C2.52019 87.5123 0.976036 88.9348 0.451605 90.0876C-0.568121 92.3931 0.101984 93.8402 2.84068 94.5515C9.01731 96.2929 14.8443 98.8683 20.3217 101.91C22.3903 103.062 25.4495 104.362 27.5181 105.662C30.6064 107.526 33.6947 108.409 37.1035 108.973C37.1035 108.973 50.6222 111.279 61.6061 118.343C65.1897 120.648 70.1718 120.501 73.6097 118.196L94.3247 103.921C96.0437 102.621 96.539 100.463 95.3444 98.7211L92.9554 95.1156C92.2561 93.6685 91.0616 91.5102 90.2167 88.9103C88.4977 78.8052 82.1754 68.4303 79.7572 64.6777C79.2328 63.6721 78.213 63.0834 77.0185 62.8136C55.2546 58.4969 36.0838 64.6777 36.0838 64.6777L32.8206 61.2194C30.2568 58.3252 27.5181 55.6027 24.9542 52.7085C22.0407 49.5445 19.302 46.5032 16.3885 43.4864C14.3199 41.328 10.9111 40.8865 8.3472 42.3336C5.78332 43.9278 5.08408 46.5032 6.80304 48.9559C14.349 60.2138 21.8659 71.2999 29.0622 82.5578C29.7615 83.8578 30.4316 85.1577 30.6064 86.6048C30.956 89.548 30.4316 91.9762 27.1684 90.9706Z" fill="white"/>
<path d="M59.9453 51.3104C63.1474 51.3104 65.7432 49.1252 65.7432 46.4296C65.7432 43.7339 63.1474 41.5487 59.9453 41.5487C56.7433 41.5487 54.1475 43.7339 54.1475 46.4296C54.1475 49.1252 56.7433 51.3104 59.9453 51.3104Z" fill="white"/>
<path d="M35.7925 30.5362C38.9946 30.5362 41.5904 28.3509 41.5904 25.6553C41.5904 22.9597 38.9946 20.7744 35.7925 20.7744C32.5904 20.7744 29.9946 22.9597 29.9946 25.6553C29.9946 28.3509 32.5904 30.5362 35.7925 30.5362Z" fill="white"/>
<path d="M35.7925 51.3104C38.9946 51.3104 41.5904 49.1252 41.5904 46.4296C41.5904 43.7339 38.9946 41.5487 35.7925 41.5487C32.5904 41.5487 29.9946 43.7339 29.9946 46.4296C29.9946 49.1252 32.5904 51.3104 35.7925 51.3104Z" fill="white"/>
<path d="M59.9453 30.5362C63.1474 30.5362 65.7432 28.3509 65.7432 25.6553C65.7432 22.9597 63.1474 20.7744 59.9453 20.7744C56.7433 20.7744 54.1475 22.9597 54.1475 25.6553C54.1475 28.3509 56.7433 30.5362 59.9453 30.5362Z" fill="white"/>
</svg>
